<?xml version="1.0" encoding="iso-8859-1"?>
<!-- Generator: Adobe Illustrator 19.0.0, SVG Export Plug-In . SVG Version: 6.00 Build 0)  -->
<svg version="1.1" id="Capa_1" xmlns="http://www.w3.org/2000/svg" xmlns:xlink="http://www.w3.org/1999/xlink" x="0px" y="0px"
	 viewBox="0 0 512 512" style="enable-background:new 0 0 512 512;" xml:space="preserve">
<path style="fill:#FFFCF8;" d="M90.368,469.333c8.183,0.009,16.35,0.751,24.405,2.219l169.728,30.805
	c3.985,0.7,8.098-0.026,11.605-2.048l194.048-112.043c12.237-7.083,16.435-22.733,9.387-34.987
	c-7.108-12.203-22.724-16.393-34.987-9.387l-105.643,61.013c-4.548,7.91-12.979,12.791-22.101,12.8l0,0
	c-2.244,0.009-4.489-0.273-6.656-0.853l-107.776-15.787l107.776,15.787c11.187,2.961,22.963-1.937,28.757-11.947
	c1.126-1.92,1.988-3.985,2.56-6.144c3.669-13.662-4.429-27.716-18.091-31.403l-80.725-14.336
	c-12.254-2.79-24.055-7.27-35.072-13.312c-20.036-10.436-42.351-15.744-64.939-15.445c-22.204-0.299-44.143,4.83-63.915,14.933
	c-11.93,6.204-25.054,9.762-38.485,10.411v119.723H90.368z"/>
<path style="fill:#FFAF46;" d="M307.712,298.667c80.119,0,145.067-64.947,145.067-145.067S387.831,8.533,307.712,8.533
	S162.645,73.481,162.645,153.6S227.592,298.667,307.712,298.667z M307.712,34.133c65.98,0,119.467,53.487,119.467,119.467
	s-53.487,119.467-119.467,119.467S188.245,219.58,188.245,153.6S241.732,34.133,307.712,34.133z"/>
<polygon style="fill:#006DF0;" points="60.245,469.333 60.245,349.611 60.245,315.733 9.045,315.733 9.045,503.467 60.245,503.467 
	"/>
<circle style="fill:#FFAF46;" cx="307.712" cy="153.6" r="119.467"/>
<g>
	<path style="fill:#231F20;" d="M295.364,280.969c-0.282,0-0.572-0.017-0.853-0.051c-8.9-0.913-17.673-2.756-26.189-5.504
		c-4.395-1.69-6.596-6.63-4.898-11.025c1.562-4.062,5.939-6.298,10.146-5.188c7.373,2.381,14.976,3.977,22.682,4.77
		c4.71,0.239,8.346,4.25,8.107,8.96c-0.239,4.71-4.25,8.346-8.96,8.107L295.364,280.969z M320.307,280.969
		c-4.71-0.043-8.499-3.9-8.457-8.61c0.043-4.326,3.302-7.936,7.603-8.405c7.697-0.811,15.292-2.432,22.656-4.821
		c4.42-1.647,9.327,0.606,10.974,5.018c1.647,4.42-0.606,9.327-5.018,10.974c-0.222,0.085-0.444,0.154-0.674,0.222
		c-8.499,2.765-17.271,4.634-26.163,5.564c-0.333,0.017-0.631,0.034-0.922,0.034L320.307,280.969L320.307,280.969z M248.098,265.719
		c-1.502,0-2.97-0.393-4.267-1.143c-7.74-4.471-14.993-9.728-21.641-15.701c-3.558-3.098-3.925-8.482-0.836-12.041
		c3.098-3.558,8.482-3.925,12.041-0.836c0.068,0.06,0.128,0.119,0.196,0.179c5.769,5.188,12.058,9.762,18.773,13.653
		c4.079,2.355,5.478,7.578,3.123,11.657c-1.527,2.637-4.343,4.267-7.39,4.267L248.098,265.719z M367.565,265.6
		c-4.71-0.009-8.525-3.831-8.516-8.55c0.009-3.038,1.621-5.845,4.25-7.364c6.716-3.883,13.005-8.457,18.773-13.653
		c3.499-3.157,8.892-2.884,12.049,0.623c3.157,3.499,2.884,8.892-0.614,12.058c-6.639,5.99-13.884,11.264-21.615,15.744
		c-1.323,0.768-2.833,1.152-4.361,1.126L367.565,265.6z M211.174,232.508c-2.731,0.009-5.291-1.297-6.903-3.499
		c-5.274-7.219-9.771-14.976-13.423-23.134c-1.835-4.343,0.205-9.344,4.548-11.179c4.207-1.775,9.071,0.077,11.025,4.207
		c3.166,7.066,7.074,13.781,11.639,20.036c2.782,3.806,1.954,9.148-1.852,11.921C214.741,231.927,212.983,232.508,211.174,232.508z
		 M404.386,232.329c-4.71,0-8.533-3.831-8.525-8.542c0-1.801,0.572-3.55,1.63-5.009c4.557-6.272,8.448-12.996,11.605-20.079
		c1.92-4.309,6.963-6.238,11.273-4.318c4.309,1.92,6.238,6.963,4.318,11.273c-3.644,8.166-8.132,15.923-13.389,23.151
		C409.694,231.023,407.125,232.329,404.386,232.329z M190.873,187.204c-4.028-0.009-7.501-2.825-8.337-6.758
		c-1.869-8.738-2.807-17.647-2.825-26.581c0-4.71,3.823-8.533,8.533-8.533l0,0c4.71,0,8.533,3.823,8.533,8.533
		c0.017,7.748,0.836,15.462,2.449,23.04c0.981,4.608-1.954,9.139-6.562,10.129c-0.589,0.128-1.186,0.188-1.792,0.188
		L190.873,187.204L190.873,187.204z M424.601,186.957c-0.597,0-1.186-0.06-1.766-0.179c-4.608-0.973-7.561-5.504-6.588-10.112l0,0
		c1.596-7.586,2.398-15.317,2.398-23.066c-0.017-4.762,3.772-8.661,8.533-8.781c4.599-0.111,8.414,3.524,8.533,8.124
		c0,0.051,0,0.111,0,0.162v0.495c0,8.934-0.922,17.843-2.765,26.59c-0.836,3.934-4.301,6.758-8.329,6.767L424.601,186.957
		L424.601,186.957z M190.788,137.549c-0.589,0-1.178-0.06-1.749-0.179c-4.617-0.964-7.578-5.478-6.613-10.095l0,0
		c1.835-8.755,4.591-17.297,8.209-25.481c1.852-4.335,6.869-6.34,11.204-4.489c4.335,1.852,6.34,6.869,4.489,11.204
		c-0.026,0.068-0.06,0.137-0.094,0.205c-3.132,7.083-5.513,14.473-7.1,22.05c-0.828,3.942-4.301,6.775-8.329,6.784H190.788z
		 M424.499,136.832c-4.019,0-7.492-2.807-8.337-6.733c-1.63-7.569-4.062-14.95-7.245-22.007c-1.937-4.301-0.026-9.353,4.275-11.29
		c4.301-1.937,9.353-0.026,11.29,4.275c3.669,8.158,6.468,16.674,8.363,25.421c0.99,4.608-1.937,9.139-6.537,10.138
		C425.711,136.764,425.105,136.832,424.499,136.832L424.499,136.832z M210.875,92.16c-4.71-0.009-8.525-3.831-8.525-8.542
		c0-1.792,0.572-3.541,1.621-4.992c5.239-7.236,11.221-13.909,17.843-19.908c3.482-3.174,8.883-2.918,12.058,0.563
		c3.174,3.482,2.918,8.883-0.563,12.058c-0.009,0.009-0.017,0.017-0.034,0.026c-5.743,5.205-10.931,10.991-15.479,17.271
		C216.192,90.854,213.615,92.16,210.875,92.16z M404.138,91.554c-2.722,0-5.274-1.289-6.886-3.482
		c-4.582-6.246-9.805-12.006-15.582-17.178c-3.601-3.046-4.045-8.431-0.998-12.023c3.046-3.601,8.431-4.045,12.023-0.998
		c0.119,0.102,0.239,0.205,0.35,0.316c6.639,5.965,12.646,12.595,17.92,19.797c2.782,3.806,1.963,9.139-1.843,11.93
		c-1.459,1.067-3.226,1.647-5.035,1.647L404.138,91.554z M247.697,58.82c-4.71-0.009-8.525-3.831-8.516-8.55
		c0.009-3.038,1.621-5.845,4.25-7.364c7.731-4.497,15.906-8.166,24.405-10.957c4.463-1.527,9.31,0.853,10.837,5.308
		c1.527,4.463-0.853,9.31-5.308,10.837c-0.068,0.026-0.137,0.043-0.205,0.068c-7.364,2.415-14.447,5.598-21.146,9.498
		C250.701,58.428,249.216,58.82,247.697,58.82z M367.087,58.453c-1.493,0.009-2.97-0.384-4.267-1.135
		c-6.716-3.866-13.815-7.014-21.188-9.387c-4.489-1.442-6.955-6.246-5.513-10.743s6.246-6.955,10.735-5.521
		c8.508,2.748,16.717,6.374,24.474,10.82c4.087,2.347,5.495,7.561,3.149,11.648c-1.527,2.654-4.352,4.284-7.415,4.284
		L367.087,58.453z M294.852,43.349c-4.71-0.043-8.499-3.9-8.457-8.61c0.043-4.326,3.302-7.936,7.603-8.405
		c8.883-0.939,17.835-0.973,26.726-0.085c4.693,0.469,8.107,4.651,7.637,9.344c-0.469,4.693-4.651,8.107-9.344,7.637
		c-7.714-0.759-15.479-0.742-23.185,0.068C295.509,43.332,295.176,43.349,294.852,43.349z"/>
	<path style="fill:#231F20;" d="M350.114,153.6c18.918-13.926,22.972-40.55,9.045-59.477C351.121,83.2,338.346,76.757,324.778,76.8
		v-8.533c0-4.71-3.823-8.533-8.533-8.533s-8.533,3.823-8.533,8.533V76.8h-17.067v-8.533c0-4.71-3.823-8.533-8.533-8.533
		s-8.533,3.823-8.533,8.533V76.8h-17.067c-4.71,0-8.533,3.823-8.533,8.533c0,4.71,3.823,8.533,8.533,8.533h8.533v119.467h-8.533
		c-4.71,0-8.533,3.823-8.533,8.533c0,4.71,3.823,8.533,8.533,8.533h17.067v8.533c0,4.71,3.823,8.533,8.533,8.533
		s8.533-3.823,8.533-8.533V230.4h17.067v8.533c0,4.71,3.823,8.533,8.533,8.533s8.533-3.823,8.533-8.533V230.4
		c23.492,0.068,42.59-18.918,42.658-42.419C367.479,174.413,361.045,161.638,350.114,153.6z M350.378,119.467
		c0,14.14-11.46,25.6-25.6,25.6h-42.667v-51.2h42.667C338.918,93.867,350.378,105.327,350.378,119.467z M324.778,213.333h-42.667
		v-51.2h42.667c14.14,0,25.6,11.46,25.6,25.6C350.378,201.873,338.918,213.333,324.778,213.333z"/>
	<path style="fill:#231F20;" d="M307.712,307.2c-84.83,0-153.6-68.77-153.6-153.6S222.882,0,307.712,0s153.6,68.77,153.6,153.6
		C461.209,238.387,392.499,307.098,307.712,307.2z M307.712,17.067c-75.409,0-136.533,61.124-136.533,136.533
		s61.124,136.533,136.533,136.533S444.245,229.009,444.245,153.6C444.151,78.234,383.078,17.152,307.712,17.067z"/>
	<path style="fill:#231F20;" d="M60.245,512h-51.2c-4.71,0-8.533-3.823-8.533-8.533V315.733c0-4.71,3.823-8.533,8.533-8.533h51.2
		c4.71,0,8.533,3.823,8.533,8.533v187.733C68.778,508.177,64.955,512,60.245,512z M17.578,494.933h34.133V324.267H17.578V494.933z"
		/>
	<path style="fill:#231F20;" d="M506.922,349.013c-9.506-16.222-30.293-21.794-46.635-12.493l-89.634,51.746
		c-1.741-14.148-11.972-25.779-25.779-29.312l-80.316-14.208c-11.486-2.62-22.554-6.827-32.887-12.493
		c-21.308-11.085-45.013-16.759-69.026-16.521c-23.603-0.333-46.933,5.137-67.925,15.932c-10.837,5.649-22.775,8.866-34.987,9.429
		c-4.71,0.273-8.311,4.318-8.038,9.028s4.318,8.311,9.028,8.038c14.669-0.7,29.013-4.599,42.018-11.418
		c18.551-9.412,39.1-14.199,59.904-13.943c21.146-0.256,42.035,4.685,60.826,14.387c11.836,6.485,24.525,11.281,37.692,14.234
		l80,14.182c9.105,2.432,14.515,11.793,12.083,20.898c-0.009,0.017-0.009,0.034-0.017,0.051c-0.375,1.417-0.956,2.765-1.707,4.019
		v0.068h-0.043c-3.994,6.502-11.708,9.702-19.132,7.927c-0.316-0.085-0.649-0.154-0.973-0.196l-107.776-15.787
		c-4.642-0.819-9.071,2.278-9.89,6.921c-0.819,4.642,2.278,9.071,6.921,9.89c0.162,0.026,0.324,0.051,0.495,0.068l107.324,15.727
		c2.688,0.666,5.453,0.998,8.226,0.998h0.119c11.247,0,21.769-5.572,28.092-14.882L468.787,351.3
		c8.149-4.727,18.594-1.963,23.33,6.195c1.51,2.611,2.313,5.572,2.304,8.585c0.043,6.11-3.226,11.767-8.533,14.797L291.797,492.945
		c-1.749,0.99-3.789,1.348-5.777,1.015l-169.728-30.805c-8.55-1.553-17.229-2.347-25.924-2.355H60.245
		c-4.71,0-8.533,3.823-8.533,8.533c0,4.71,3.823,8.533,8.533,8.533h30.123c7.671,0.009,15.326,0.708,22.878,2.082l169.813,30.814
		c5.948,1.041,12.075-0.026,17.314-3.029l194.048-112.043c10.615-6.05,17.143-17.357,17.067-29.577
		C511.488,360.115,509.909,354.219,506.922,349.013z"/>
</g>
<g>
</g>
<g>
</g>
<g>
</g>
<g>
</g>
<g>
</g>
<g>
</g>
<g>
</g>
<g>
</g>
<g>
</g>
<g>
</g>
<g>
</g>
<g>
</g>
<g>
</g>
<g>
</g>
<g>
</g>
</svg>
